<mxfile host="app.diagrams.net" agent="Mozilla/5.0 (Macintosh; Intel Mac OS X 10_15_7) AppleWebKit/537.36 (KHTML, like Gecko) Chrome/130.0.0.0 Safari/537.36" version="24.8.3">
  <diagram name="ページ1" id="POTG8XySrepqZoLcC0DG">
    <mxGraphModel dx="5320" dy="2491" grid="1" gridSize="10" guides="1" tooltips="1" connect="1" arrows="1" fold="1" page="1" pageScale="1" pageWidth="827" pageHeight="1169" math="0" shadow="0">
      <root>
        <mxCell id="0" />
        <mxCell id="1" parent="0" />
        <mxCell id="_yV6Y9GvnwlzQ7EZrmGs-73" value="" style="group;movable=1;resizable=1;rotatable=1;deletable=1;editable=1;locked=0;connectable=1;" parent="1" vertex="1" connectable="0">
          <mxGeometry x="-720" y="240" width="200" height="150" as="geometry" />
        </mxCell>
        <mxCell id="_yV6Y9GvnwlzQ7EZrmGs-74" value="&lt;span style=&quot;font-size: 15px;&quot;&gt;HH_00_00&lt;/span&gt;" style="swimlane;whiteSpace=wrap;html=1;movable=1;resizable=1;rotatable=1;deletable=1;editable=1;locked=0;connectable=1;container=0;" parent="_yV6Y9GvnwlzQ7EZrmGs-73" vertex="1">
          <mxGeometry width="199.1304347826087" height="150" as="geometry" />
        </mxCell>
        <UserObject label="authpriv.csv" id="_yV6Y9GvnwlzQ7EZrmGs-80">
          <mxCell style="text;strokeColor=none;fillColor=none;align=left;verticalAlign=middle;spacingLeft=4;spacingRight=4;overflow=hidden;points=[[0,0.5],[1,0.5]];portConstraint=eastwest;rotatable=1;whiteSpace=wrap;html=1;movable=1;resizable=1;deletable=1;editable=1;locked=0;connectable=1;" parent="_yV6Y9GvnwlzQ7EZrmGs-73" vertex="1">
            <mxGeometry x="4" y="24" width="176" height="30" as="geometry" />
          </mxCell>
        </UserObject>
        <UserObject label="MacTableEntry.csv" id="_yV6Y9GvnwlzQ7EZrmGs-81">
          <mxCell style="text;strokeColor=none;fillColor=none;align=left;verticalAlign=middle;spacingLeft=4;spacingRight=4;overflow=hidden;points=[[0,0.5],[1,0.5]];portConstraint=eastwest;rotatable=1;whiteSpace=wrap;html=1;movable=1;resizable=1;deletable=1;editable=1;locked=0;connectable=1;" parent="_yV6Y9GvnwlzQ7EZrmGs-73" vertex="1">
            <mxGeometry x="4" y="54" width="176" height="30" as="geometry" />
          </mxCell>
        </UserObject>
        <UserObject label="system_HH_00_00.log" id="_yV6Y9GvnwlzQ7EZrmGs-82">
          <mxCell style="text;strokeColor=none;fillColor=none;align=left;verticalAlign=middle;spacingLeft=4;spacingRight=4;overflow=hidden;points=[[0,0.5],[1,0.5]];portConstraint=eastwest;rotatable=1;whiteSpace=wrap;html=1;movable=1;resizable=1;deletable=1;editable=1;locked=0;connectable=1;" parent="_yV6Y9GvnwlzQ7EZrmGs-73" vertex="1">
            <mxGeometry x="4" y="84" width="176" height="30" as="geometry" />
          </mxCell>
        </UserObject>
        <UserObject label="system.csv" id="_yV6Y9GvnwlzQ7EZrmGs-84">
          <mxCell style="text;strokeColor=none;fillColor=none;align=left;verticalAlign=middle;spacingLeft=4;spacingRight=4;overflow=hidden;points=[[0,0.5],[1,0.5]];portConstraint=eastwest;rotatable=1;whiteSpace=wrap;html=1;movable=1;resizable=1;deletable=1;editable=1;locked=0;connectable=1;" parent="_yV6Y9GvnwlzQ7EZrmGs-73" vertex="1">
            <mxGeometry x="4" y="114" width="176" height="30" as="geometry" />
          </mxCell>
        </UserObject>
        <mxCell id="_yV6Y9GvnwlzQ7EZrmGs-72" value="&lt;span style=&quot;font-size: 15px;&quot;&gt;YYYY-mm-dd&lt;/span&gt;" style="swimlane;whiteSpace=wrap;html=1;movable=1;resizable=1;rotatable=1;deletable=1;editable=1;locked=0;connectable=1;" parent="1" vertex="1">
          <mxGeometry x="-740" y="200" width="240" height="360" as="geometry" />
        </mxCell>
        <UserObject label="process_kill_YYYY-mm-dd.log" id="_yV6Y9GvnwlzQ7EZrmGs-79">
          <mxCell style="text;strokeColor=none;fillColor=none;align=left;verticalAlign=middle;spacingLeft=4;spacingRight=4;overflow=hidden;points=[[0,0.5],[1,0.5]];portConstraint=eastwest;rotatable=1;whiteSpace=wrap;html=1;movable=1;resizable=1;deletable=1;editable=1;locked=0;connectable=1;" parent="1" vertex="1">
            <mxGeometry x="-720" y="520" width="200" height="30" as="geometry" />
          </mxCell>
        </UserObject>
        <UserObject label="CPU_util_YYYY-mm-dd.log.csv" id="_yV6Y9GvnwlzQ7EZrmGs-77">
          <mxCell style="text;strokeColor=none;fillColor=none;align=left;verticalAlign=middle;spacingLeft=4;spacingRight=4;overflow=hidden;points=[[0,0.5],[1,0.5]];portConstraint=eastwest;rotatable=1;whiteSpace=wrap;html=1;movable=1;resizable=1;deletable=1;editable=1;locked=0;connectable=1;" parent="1" vertex="1">
            <mxGeometry x="-720" y="490" width="200" height="30" as="geometry" />
          </mxCell>
        </UserObject>
        <UserObject label="CPU_util_YYYY-mm-dd.log" id="_yV6Y9GvnwlzQ7EZrmGs-76">
          <mxCell style="text;strokeColor=none;fillColor=none;align=left;verticalAlign=middle;spacingLeft=4;spacingRight=4;overflow=hidden;points=[[0,0.5],[1,0.5]];portConstraint=eastwest;rotatable=1;whiteSpace=wrap;html=1;movable=1;resizable=1;deletable=1;editable=1;locked=0;connectable=1;" parent="1" vertex="1">
            <mxGeometry x="-720" y="460" width="200" height="30" as="geometry" />
          </mxCell>
        </UserObject>
        <UserObject label="CPU_temp_YYYY-mm-dd.log.csv" id="_yV6Y9GvnwlzQ7EZrmGs-75">
          <mxCell style="text;strokeColor=none;fillColor=none;align=left;verticalAlign=middle;spacingLeft=4;spacingRight=4;overflow=hidden;points=[[0,0.5],[1,0.5]];portConstraint=eastwest;rotatable=1;whiteSpace=wrap;html=1;movable=1;resizable=1;deletable=1;editable=1;locked=0;connectable=1;" parent="1" vertex="1">
            <mxGeometry x="-720" y="430" width="200" height="30" as="geometry" />
          </mxCell>
        </UserObject>
        <UserObject label="CPU_temp_YYYY-mm-dd.log" id="_yV6Y9GvnwlzQ7EZrmGs-62">
          <mxCell style="text;strokeColor=none;fillColor=none;align=left;verticalAlign=middle;spacingLeft=4;spacingRight=4;overflow=hidden;points=[[0,0.5],[1,0.5]];portConstraint=eastwest;rotatable=1;whiteSpace=wrap;html=1;movable=1;resizable=1;deletable=1;editable=1;locked=0;connectable=1;" parent="1" vertex="1">
            <mxGeometry x="-720" y="400" width="200" height="30" as="geometry" />
          </mxCell>
        </UserObject>
        <mxCell id="_yV6Y9GvnwlzQ7EZrmGs-56" value="&lt;font style=&quot;font-size: 15px;&quot;&gt;archive&lt;/font&gt;" style="swimlane;whiteSpace=wrap;html=1;container=0;movable=1;resizable=1;rotatable=1;deletable=1;editable=1;locked=0;connectable=1;" parent="1" vertex="1">
          <mxGeometry x="-760" y="160" width="280" height="700" as="geometry" />
        </mxCell>
        <mxCell id="_yV6Y9GvnwlzQ7EZrmGs-89" value="&lt;span style=&quot;font-size: 15px;&quot;&gt;disk_logger&lt;/span&gt;" style="swimlane;whiteSpace=wrap;html=1;container=0;movable=1;resizable=1;rotatable=1;deletable=1;editable=1;locked=0;connectable=1;" parent="1" vertex="1">
          <mxGeometry x="-740" y="570" width="240" height="60" as="geometry" />
        </mxCell>
        <UserObject label="disk_metrics_YYYY-mm-dd.log" id="_yV6Y9GvnwlzQ7EZrmGs-94">
          <mxCell style="text;strokeColor=none;fillColor=none;align=left;verticalAlign=middle;spacingLeft=4;spacingRight=4;overflow=hidden;points=[[0,0.5],[1,0.5]];portConstraint=eastwest;rotatable=1;whiteSpace=wrap;html=1;movable=1;resizable=1;deletable=1;editable=1;locked=0;connectable=1;" parent="1" vertex="1">
            <mxGeometry x="-720" y="597" width="200" height="30" as="geometry" />
          </mxCell>
        </UserObject>
        <mxCell id="_yV6Y9GvnwlzQ7EZrmGs-96" value="&lt;span style=&quot;font-size: 15px;&quot;&gt;interface_logger&lt;/span&gt;" style="swimlane;whiteSpace=wrap;html=1;container=0;movable=1;resizable=1;rotatable=1;deletable=1;editable=1;locked=0;connectable=1;" parent="1" vertex="1">
          <mxGeometry x="-740" y="640" width="240" height="180" as="geometry" />
        </mxCell>
        <UserObject label="br-lan_YYYY-mm-dd.log" id="_yV6Y9GvnwlzQ7EZrmGs-97">
          <mxCell style="text;strokeColor=none;fillColor=none;align=left;verticalAlign=middle;spacingLeft=4;spacingRight=4;overflow=hidden;points=[[0,0.5],[1,0.5]];portConstraint=eastwest;rotatable=1;whiteSpace=wrap;html=1;container=0;movable=1;resizable=1;deletable=1;editable=1;locked=0;connectable=1;" parent="1" vertex="1">
            <mxGeometry x="-720" y="666" width="200" height="30" as="geometry" />
          </mxCell>
        </UserObject>
        <UserObject label="eth0_YYYY-mm-dd.log" id="_yV6Y9GvnwlzQ7EZrmGs-98">
          <mxCell style="text;strokeColor=none;fillColor=none;align=left;verticalAlign=middle;spacingLeft=4;spacingRight=4;overflow=hidden;points=[[0,0.5],[1,0.5]];portConstraint=eastwest;rotatable=1;whiteSpace=wrap;html=1;container=0;movable=1;resizable=1;deletable=1;editable=1;locked=0;connectable=1;" parent="1" vertex="1">
            <mxGeometry x="-720" y="696" width="200" height="30" as="geometry" />
          </mxCell>
        </UserObject>
        <UserObject label="lo_YYYY-mm-dd.log" id="_yV6Y9GvnwlzQ7EZrmGs-99">
          <mxCell style="text;strokeColor=none;fillColor=none;align=left;verticalAlign=middle;spacingLeft=4;spacingRight=4;overflow=hidden;points=[[0,0.5],[1,0.5]];portConstraint=eastwest;rotatable=1;whiteSpace=wrap;html=1;container=0;movable=1;resizable=1;deletable=1;editable=1;locked=0;connectable=1;" parent="1" vertex="1">
            <mxGeometry x="-720" y="726" width="200" height="30" as="geometry" />
          </mxCell>
        </UserObject>
        <UserObject label="rax0_YYYY-mm-dd.log" id="_yV6Y9GvnwlzQ7EZrmGs-100">
          <mxCell style="text;strokeColor=none;fillColor=none;align=left;verticalAlign=middle;spacingLeft=4;spacingRight=4;overflow=hidden;points=[[0,0.5],[1,0.5]];portConstraint=eastwest;rotatable=1;whiteSpace=wrap;html=1;container=0;movable=1;resizable=1;deletable=1;editable=1;locked=0;connectable=1;" parent="1" vertex="1">
            <mxGeometry x="-720" y="756" width="200" height="30" as="geometry" />
          </mxCell>
        </UserObject>
        <UserObject label="tailscale0_YYYY-mm-dd.log" id="_yV6Y9GvnwlzQ7EZrmGs-101">
          <mxCell style="text;strokeColor=none;fillColor=none;align=left;verticalAlign=middle;spacingLeft=4;spacingRight=4;overflow=hidden;points=[[0,0.5],[1,0.5]];portConstraint=eastwest;rotatable=1;whiteSpace=wrap;html=1;container=0;movable=1;resizable=1;deletable=1;editable=1;locked=0;connectable=1;" parent="1" vertex="1">
            <mxGeometry x="-720" y="786" width="200" height="30" as="geometry" />
          </mxCell>
        </UserObject>
        <UserObject label="msmtp_YYYY-mm.json" id="_yV6Y9GvnwlzQ7EZrmGs-102">
          <mxCell style="text;strokeColor=none;fillColor=none;align=left;verticalAlign=middle;spacingLeft=4;spacingRight=4;overflow=hidden;points=[[0,0.5],[1,0.5]];portConstraint=eastwest;rotatable=1;whiteSpace=wrap;html=1;movable=1;resizable=1;deletable=1;editable=1;locked=0;connectable=1;" parent="1" vertex="1">
            <mxGeometry x="-720" y="823" width="200" height="30" as="geometry" />
          </mxCell>
        </UserObject>
        <mxCell id="HLHCXN7Uvu8sfQoYptTu-39" value="" style="group;fillColor=default;" parent="1" vertex="1" connectable="0">
          <mxGeometry x="-223.2" y="240" width="380" height="320" as="geometry" />
        </mxCell>
        <mxCell id="HLHCXN7Uvu8sfQoYptTu-16" value="&lt;font style=&quot;font-size: 15px;&quot;&gt;Numbers&lt;/font&gt;" style="swimlane;whiteSpace=wrap;html=1;container=0;startSize=30;" parent="HLHCXN7Uvu8sfQoYptTu-39" vertex="1">
          <mxGeometry width="380" height="320" as="geometry" />
        </mxCell>
        <mxCell id="HLHCXN7Uvu8sfQoYptTu-38" value="" style="group;fillColor=default;" parent="HLHCXN7Uvu8sfQoYptTu-39" vertex="1" connectable="0">
          <mxGeometry x="20" y="50" width="340" height="250" as="geometry" />
        </mxCell>
        <mxCell id="HLHCXN7Uvu8sfQoYptTu-21" value="&lt;font style=&quot;font-size: 15px;&quot;&gt;防犯カメラ・ネットワーク&lt;/font&gt;" style="swimlane;whiteSpace=wrap;html=1;container=0;startSize=30;" parent="HLHCXN7Uvu8sfQoYptTu-38" vertex="1">
          <mxGeometry width="340" height="250" as="geometry" />
        </mxCell>
        <mxCell id="HLHCXN7Uvu8sfQoYptTu-37" value="" style="group;fillColor=default;container=0;" parent="HLHCXN7Uvu8sfQoYptTu-38" vertex="1" connectable="0">
          <mxGeometry x="20" y="50" width="300" height="180" as="geometry" />
        </mxCell>
        <mxCell id="HLHCXN7Uvu8sfQoYptTu-11" value="&lt;span style=&quot;font-size: 15px;&quot;&gt;ルーター監視&lt;/span&gt;" style="swimlane;fontStyle=1;childLayout=stackLayout;horizontal=1;startSize=30;horizontalStack=0;resizeParent=1;resizeParentMax=0;resizeLast=0;collapsible=1;marginBottom=0;whiteSpace=wrap;html=1;container=0;" parent="HLHCXN7Uvu8sfQoYptTu-38" vertex="1">
          <mxGeometry x="20" y="50" width="300" height="180" as="geometry" />
        </mxCell>
        <mxCell id="HLHCXN7Uvu8sfQoYptTu-13" value="GL-MT3000 (Beryl AX) system.log.numbers" style="text;strokeColor=none;fillColor=none;align=left;verticalAlign=middle;spacingLeft=4;spacingRight=4;overflow=hidden;points=[[0,0.5],[1,0.5]];portConstraint=eastwest;rotatable=0;whiteSpace=wrap;html=1;" parent="HLHCXN7Uvu8sfQoYptTu-38" vertex="1">
          <mxGeometry x="20" y="80" width="300" height="30" as="geometry" />
        </mxCell>
        <UserObject label="GL-MT3000 (Beryl AX) CPU Temperature.numbers" id="HLHCXN7Uvu8sfQoYptTu-15">
          <mxCell style="text;strokeColor=none;fillColor=none;align=left;verticalAlign=middle;spacingLeft=4;spacingRight=4;overflow=hidden;points=[[0,0.5],[1,0.5]];portConstraint=eastwest;rotatable=0;whiteSpace=wrap;html=1;" parent="HLHCXN7Uvu8sfQoYptTu-38" vertex="1">
            <mxGeometry x="20" y="140" width="300" height="30" as="geometry" />
          </mxCell>
        </UserObject>
        <mxCell id="HLHCXN7Uvu8sfQoYptTu-14" value="GL-MT3000 (Beryl AX) CPU Utilization.numbers" style="text;strokeColor=none;fillColor=none;align=left;verticalAlign=middle;spacingLeft=4;spacingRight=4;overflow=hidden;points=[[0,0.5],[1,0.5]];portConstraint=eastwest;rotatable=0;whiteSpace=wrap;html=1;" parent="HLHCXN7Uvu8sfQoYptTu-38" vertex="1">
          <mxGeometry x="20" y="170" width="300" height="30" as="geometry" />
        </mxCell>
        <UserObject label="GL-MT3000 (Beryl AX) Traffic Statistics.numbers" id="HLHCXN7Uvu8sfQoYptTu-12">
          <mxCell style="text;strokeColor=none;fillColor=none;align=left;verticalAlign=middle;spacingLeft=4;spacingRight=4;overflow=hidden;points=[[0,0.5],[1,0.5]];portConstraint=eastwest;rotatable=0;whiteSpace=wrap;html=1;" parent="HLHCXN7Uvu8sfQoYptTu-38" vertex="1">
            <mxGeometry x="20" y="200" width="300" height="30" as="geometry" />
          </mxCell>
        </UserObject>
        <mxCell id="HLHCXN7Uvu8sfQoYptTu-23" value="GL-MT3000 (Beryl AX) Connection Statistics.numbers" style="text;strokeColor=none;fillColor=none;align=left;verticalAlign=middle;spacingLeft=4;spacingRight=4;overflow=hidden;points=[[0,0.5],[1,0.5]];portConstraint=eastwest;rotatable=0;whiteSpace=wrap;html=1;" parent="HLHCXN7Uvu8sfQoYptTu-38" vertex="1">
          <mxGeometry x="20" y="110" width="300" height="30" as="geometry" />
        </mxCell>
        <mxCell id="_yV6Y9GvnwlzQ7EZrmGs-142" value="" style="endArrow=classic;html=1;rounded=1;curved=0;entryX=0;entryY=0.5;entryDx=0;entryDy=0;startArrow=oval;startFill=1;exitX=1;exitY=0.5;exitDx=0;exitDy=0;" parent="1" source="_yV6Y9GvnwlzQ7EZrmGs-97" target="HLHCXN7Uvu8sfQoYptTu-12" edge="1">
          <mxGeometry width="50" height="50" relative="1" as="geometry">
            <mxPoint x="-194" y="617.0749999999998" as="sourcePoint" />
            <mxPoint x="-184" y="603" as="targetPoint" />
            <Array as="points">
              <mxPoint x="-400" y="680" />
              <mxPoint x="-290" y="505" />
            </Array>
          </mxGeometry>
        </mxCell>
        <mxCell id="HLHCXN7Uvu8sfQoYptTu-24" value="" style="endArrow=classic;html=1;rounded=1;curved=0;startArrow=oval;startFill=1;exitX=1;exitY=0.5;exitDx=0;exitDy=0;entryX=0;entryY=0.5;entryDx=0;entryDy=0;" parent="1" source="_yV6Y9GvnwlzQ7EZrmGs-98" target="HLHCXN7Uvu8sfQoYptTu-12" edge="1">
          <mxGeometry width="50" height="50" relative="1" as="geometry">
            <mxPoint x="-510" y="691" as="sourcePoint" />
            <mxPoint x="-340" y="1048" as="targetPoint" />
            <Array as="points">
              <mxPoint x="-400" y="710" />
              <mxPoint x="-290" y="505" />
            </Array>
          </mxGeometry>
        </mxCell>
        <mxCell id="HLHCXN7Uvu8sfQoYptTu-25" value="" style="endArrow=classic;html=1;rounded=1;curved=0;startArrow=oval;startFill=1;exitX=1;exitY=0.5;exitDx=0;exitDy=0;entryX=0;entryY=0.5;entryDx=0;entryDy=0;" parent="1" source="_yV6Y9GvnwlzQ7EZrmGs-99" target="HLHCXN7Uvu8sfQoYptTu-12" edge="1">
          <mxGeometry width="50" height="50" relative="1" as="geometry">
            <mxPoint x="-500" y="701" as="sourcePoint" />
            <mxPoint x="-340" y="1050" as="targetPoint" />
            <Array as="points">
              <mxPoint x="-400" y="741" />
              <mxPoint x="-290" y="505" />
            </Array>
          </mxGeometry>
        </mxCell>
        <mxCell id="HLHCXN7Uvu8sfQoYptTu-26" value="" style="endArrow=classic;html=1;rounded=1;curved=0;startArrow=oval;startFill=1;exitX=1;exitY=0.5;exitDx=0;exitDy=0;entryX=0;entryY=0.5;entryDx=0;entryDy=0;" parent="1" source="_yV6Y9GvnwlzQ7EZrmGs-100" target="HLHCXN7Uvu8sfQoYptTu-12" edge="1">
          <mxGeometry width="50" height="50" relative="1" as="geometry">
            <mxPoint x="-490" y="711" as="sourcePoint" />
            <mxPoint x="-350" y="1070" as="targetPoint" />
            <Array as="points">
              <mxPoint x="-400" y="771" />
              <mxPoint x="-290" y="505" />
            </Array>
          </mxGeometry>
        </mxCell>
        <mxCell id="HLHCXN7Uvu8sfQoYptTu-27" value="" style="endArrow=classic;html=1;rounded=1;curved=0;startArrow=oval;startFill=1;exitX=1;exitY=0.5;exitDx=0;exitDy=0;entryX=0;entryY=0.5;entryDx=0;entryDy=0;" parent="1" source="_yV6Y9GvnwlzQ7EZrmGs-101" target="HLHCXN7Uvu8sfQoYptTu-12" edge="1">
          <mxGeometry width="50" height="50" relative="1" as="geometry">
            <mxPoint x="-480" y="721" as="sourcePoint" />
            <mxPoint x="-390" y="1090" as="targetPoint" />
            <Array as="points">
              <mxPoint x="-400" y="801" />
              <mxPoint x="-290" y="505" />
            </Array>
          </mxGeometry>
        </mxCell>
        <mxCell id="HLHCXN7Uvu8sfQoYptTu-48" value="&lt;span style=&quot;font-size: 20px;&quot;&gt;&amp;nbsp;⑤&amp;nbsp;&lt;/span&gt;" style="edgeLabel;html=1;align=center;verticalAlign=middle;resizable=0;points=[];" parent="HLHCXN7Uvu8sfQoYptTu-27" vertex="1" connectable="0">
          <mxGeometry x="0.5064" y="-3" relative="1" as="geometry">
            <mxPoint x="46" y="-26" as="offset" />
          </mxGeometry>
        </mxCell>
        <mxCell id="HLHCXN7Uvu8sfQoYptTu-30" value="" style="endArrow=classic;html=1;rounded=1;curved=0;entryX=0;entryY=0.5;entryDx=0;entryDy=0;startArrow=oval;startFill=1;exitX=1;exitY=0.5;exitDx=0;exitDy=0;" parent="1" source="_yV6Y9GvnwlzQ7EZrmGs-81" target="HLHCXN7Uvu8sfQoYptTu-13" edge="1">
          <mxGeometry width="50" height="50" relative="1" as="geometry">
            <mxPoint x="-530" y="289" as="sourcePoint" />
            <mxPoint x="-210" y="535" as="targetPoint" />
            <Array as="points">
              <mxPoint x="-360" y="310" />
            </Array>
          </mxGeometry>
        </mxCell>
        <mxCell id="HLHCXN7Uvu8sfQoYptTu-43" value="&lt;span style=&quot;font-size: 20px;&quot;&gt;&amp;nbsp;①&amp;nbsp;&lt;/span&gt;" style="edgeLabel;html=1;align=center;verticalAlign=middle;resizable=0;points=[];" parent="HLHCXN7Uvu8sfQoYptTu-30" vertex="1" connectable="0">
          <mxGeometry x="-0.4721" relative="1" as="geometry">
            <mxPoint x="12" y="-1" as="offset" />
          </mxGeometry>
        </mxCell>
        <mxCell id="HLHCXN7Uvu8sfQoYptTu-31" value="" style="endArrow=classic;html=1;rounded=1;curved=0;entryX=0;entryY=0.5;entryDx=0;entryDy=0;startArrow=oval;startFill=1;exitX=1;exitY=0.5;exitDx=0;exitDy=0;" parent="1" source="_yV6Y9GvnwlzQ7EZrmGs-84" target="HLHCXN7Uvu8sfQoYptTu-13" edge="1">
          <mxGeometry width="50" height="50" relative="1" as="geometry">
            <mxPoint x="-520" y="299" as="sourcePoint" />
            <mxPoint x="-200" y="545" as="targetPoint" />
            <Array as="points">
              <mxPoint x="-350" y="370" />
              <mxPoint x="-270" y="385" />
            </Array>
          </mxGeometry>
        </mxCell>
        <mxCell id="HLHCXN7Uvu8sfQoYptTu-44" value="&lt;span style=&quot;font-size: 20px;&quot;&gt;&amp;nbsp;①&amp;nbsp;&lt;/span&gt;" style="edgeLabel;html=1;align=center;verticalAlign=middle;resizable=0;points=[];" parent="HLHCXN7Uvu8sfQoYptTu-31" vertex="1" connectable="0">
          <mxGeometry x="-0.395" y="-2" relative="1" as="geometry">
            <mxPoint x="2" y="-2" as="offset" />
          </mxGeometry>
        </mxCell>
        <mxCell id="HLHCXN7Uvu8sfQoYptTu-32" value="" style="endArrow=classic;html=1;rounded=1;curved=0;entryX=0;entryY=0.5;entryDx=0;entryDy=0;startArrow=oval;startFill=1;exitX=1;exitY=0.5;exitDx=0;exitDy=0;" parent="1" source="_yV6Y9GvnwlzQ7EZrmGs-75" target="HLHCXN7Uvu8sfQoYptTu-15" edge="1">
          <mxGeometry width="50" height="50" relative="1" as="geometry">
            <mxPoint x="-510" y="309" as="sourcePoint" />
            <mxPoint x="-190" y="555" as="targetPoint" />
            <Array as="points" />
          </mxGeometry>
        </mxCell>
        <mxCell id="HLHCXN7Uvu8sfQoYptTu-45" value="&lt;span style=&quot;font-size: 20px;&quot;&gt;&amp;nbsp;③&amp;nbsp;&lt;/span&gt;" style="edgeLabel;html=1;align=center;verticalAlign=middle;resizable=0;points=[];" parent="HLHCXN7Uvu8sfQoYptTu-32" vertex="1" connectable="0">
          <mxGeometry x="-0.4973" y="3" relative="1" as="geometry">
            <mxPoint x="6" y="2" as="offset" />
          </mxGeometry>
        </mxCell>
        <mxCell id="HLHCXN7Uvu8sfQoYptTu-34" value="" style="endArrow=classic;html=1;rounded=1;curved=0;entryX=0;entryY=0.5;entryDx=0;entryDy=0;startArrow=oval;startFill=1;exitX=1;exitY=0.5;exitDx=0;exitDy=0;" parent="1" source="_yV6Y9GvnwlzQ7EZrmGs-77" target="HLHCXN7Uvu8sfQoYptTu-14" edge="1">
          <mxGeometry width="50" height="50" relative="1" as="geometry">
            <mxPoint x="-500" y="319" as="sourcePoint" />
            <mxPoint x="-180" y="565" as="targetPoint" />
            <Array as="points">
              <mxPoint x="-360" y="505" />
              <mxPoint x="-288" y="475" />
            </Array>
          </mxGeometry>
        </mxCell>
        <mxCell id="HLHCXN7Uvu8sfQoYptTu-46" value="&lt;span style=&quot;font-size: 20px;&quot;&gt;&amp;nbsp;④&amp;nbsp;&lt;/span&gt;" style="edgeLabel;html=1;align=center;verticalAlign=middle;resizable=0;points=[];" parent="HLHCXN7Uvu8sfQoYptTu-34" vertex="1" connectable="0">
          <mxGeometry x="-0.4732" y="1" relative="1" as="geometry">
            <mxPoint x="1" y="1" as="offset" />
          </mxGeometry>
        </mxCell>
        <mxCell id="HLHCXN7Uvu8sfQoYptTu-36" value="" style="endArrow=classic;html=1;rounded=1;curved=0;startArrow=oval;startFill=1;exitX=1;exitY=0.5;exitDx=0;exitDy=0;entryX=0;entryY=0.5;entryDx=0;entryDy=0;" parent="1" source="_yV6Y9GvnwlzQ7EZrmGs-81" target="HLHCXN7Uvu8sfQoYptTu-23" edge="1">
          <mxGeometry width="50" height="50" relative="1" as="geometry">
            <mxPoint x="-530" y="319" as="sourcePoint" />
            <mxPoint x="-300" y="580" as="targetPoint" />
            <Array as="points">
              <mxPoint x="-350" y="350" />
              <mxPoint x="-350" y="415" />
            </Array>
          </mxGeometry>
        </mxCell>
        <mxCell id="HLHCXN7Uvu8sfQoYptTu-42" value="&lt;span style=&quot;font-size: 20px;&quot;&gt;&amp;nbsp;②&amp;nbsp;&lt;/span&gt;" style="edgeLabel;html=1;align=center;verticalAlign=middle;resizable=0;points=[];" parent="HLHCXN7Uvu8sfQoYptTu-36" vertex="1" connectable="0">
          <mxGeometry x="-0.5187" y="3" relative="1" as="geometry">
            <mxPoint x="9" y="6" as="offset" />
          </mxGeometry>
        </mxCell>
        <mxCell id="HLHCXN7Uvu8sfQoYptTu-29" value="" style="endArrow=classic;html=1;rounded=1;curved=0;entryX=0;entryY=0.5;entryDx=0;entryDy=0;startArrow=oval;startFill=1;exitX=1;exitY=0.5;exitDx=0;exitDy=0;" parent="1" source="_yV6Y9GvnwlzQ7EZrmGs-80" target="HLHCXN7Uvu8sfQoYptTu-13" edge="1">
          <mxGeometry width="50" height="50" relative="1" as="geometry">
            <mxPoint x="-510" y="691" as="sourcePoint" />
            <mxPoint x="-210" y="505" as="targetPoint" />
            <Array as="points">
              <mxPoint x="-360" y="279" />
            </Array>
          </mxGeometry>
        </mxCell>
        <mxCell id="HLHCXN7Uvu8sfQoYptTu-40" value="&amp;nbsp;①&amp;nbsp;" style="edgeLabel;html=1;align=center;verticalAlign=middle;resizable=0;points=[];fontSize=20;" parent="HLHCXN7Uvu8sfQoYptTu-29" vertex="1" connectable="0">
          <mxGeometry x="-0.4356" y="1" relative="1" as="geometry">
            <mxPoint x="1" y="1" as="offset" />
          </mxGeometry>
        </mxCell>
        <mxCell id="HLHCXN7Uvu8sfQoYptTu-49" value="Description" style="shape=table;startSize=30;container=1;collapsible=0;childLayout=tableLayout;fixedRows=1;rowLines=0;fontStyle=0;strokeColor=default;fontSize=16;labelBackgroundColor=none;" parent="1" vertex="1">
          <mxGeometry x="-268.2" y="613" width="470" height="180" as="geometry" />
        </mxCell>
        <mxCell id="HLHCXN7Uvu8sfQoYptTu-50" value="" style="shape=tableRow;horizontal=0;startSize=0;swimlaneHead=0;swimlaneBody=0;top=0;left=0;bottom=0;right=0;collapsible=0;dropTarget=0;fillColor=none;points=[[0,0.5],[1,0.5]];portConstraint=eastwest;strokeColor=inherit;fontSize=16;" parent="HLHCXN7Uvu8sfQoYptTu-49" vertex="1">
          <mxGeometry y="30" width="470" height="30" as="geometry" />
        </mxCell>
        <mxCell id="HLHCXN7Uvu8sfQoYptTu-51" value="①" style="shape=partialRectangle;html=1;whiteSpace=wrap;connectable=0;fillColor=none;top=0;left=0;bottom=0;right=0;overflow=hidden;pointerEvents=1;strokeColor=inherit;fontSize=15;" parent="HLHCXN7Uvu8sfQoYptTu-50" vertex="1">
          <mxGeometry width="41" height="30" as="geometry">
            <mxRectangle width="41" height="30" as="alternateBounds" />
          </mxGeometry>
        </mxCell>
        <mxCell id="HLHCXN7Uvu8sfQoYptTu-52" value="各 csv の内容を&amp;nbsp;&lt;span style=&quot;font-size: 15px;&quot;&gt;system.log.numbers&amp;nbsp;&lt;/span&gt;にペースト" style="shape=partialRectangle;html=1;whiteSpace=wrap;connectable=0;fillColor=none;top=0;left=0;bottom=0;right=0;align=left;spacingLeft=6;overflow=hidden;strokeColor=inherit;fontSize=15;" parent="HLHCXN7Uvu8sfQoYptTu-50" vertex="1">
          <mxGeometry x="41" width="429" height="30" as="geometry">
            <mxRectangle width="429" height="30" as="alternateBounds" />
          </mxGeometry>
        </mxCell>
        <mxCell id="HLHCXN7Uvu8sfQoYptTu-53" value="" style="shape=tableRow;horizontal=0;startSize=0;swimlaneHead=0;swimlaneBody=0;top=0;left=0;bottom=0;right=0;collapsible=0;dropTarget=0;fillColor=none;points=[[0,0.5],[1,0.5]];portConstraint=eastwest;strokeColor=inherit;fontSize=16;" parent="HLHCXN7Uvu8sfQoYptTu-49" vertex="1">
          <mxGeometry y="60" width="470" height="30" as="geometry" />
        </mxCell>
        <mxCell id="HLHCXN7Uvu8sfQoYptTu-54" value="②" style="shape=partialRectangle;html=1;whiteSpace=wrap;connectable=0;fillColor=none;top=0;left=0;bottom=0;right=0;overflow=hidden;strokeColor=inherit;fontSize=15;" parent="HLHCXN7Uvu8sfQoYptTu-53" vertex="1">
          <mxGeometry width="41" height="30" as="geometry">
            <mxRectangle width="41" height="30" as="alternateBounds" />
          </mxGeometry>
        </mxCell>
        <mxCell id="HLHCXN7Uvu8sfQoYptTu-55" value="&lt;p style=&quot;margin: 0px; font-variant-numeric: normal; font-variant-east-asian: normal; font-variant-alternates: normal; font-size-adjust: none; font-kerning: auto; font-optical-sizing: auto; font-feature-settings: normal; font-variation-settings: normal; font-variant-position: normal; font-stretch: normal; line-height: normal; font-family: &amp;quot;Hiragino Sans&amp;quot;;&quot; class=&quot;p1&quot;&gt;&lt;font style=&quot;font-size: 15px;&quot;&gt;各接続元をソートして&lt;/font&gt;&lt;span style=&quot;font-size: 15px; background-color: initial;&quot;&gt;接続開始・終了&lt;/span&gt;&lt;span style=&quot;font-size: 15px; background-color: initial;&quot;&gt;時刻をペースト&lt;/span&gt;&lt;/p&gt;" style="shape=partialRectangle;html=1;whiteSpace=wrap;connectable=0;fillColor=none;top=0;left=0;bottom=0;right=0;align=left;spacingLeft=6;overflow=hidden;strokeColor=inherit;fontSize=16;" parent="HLHCXN7Uvu8sfQoYptTu-53" vertex="1">
          <mxGeometry x="41" width="429" height="30" as="geometry">
            <mxRectangle width="429" height="30" as="alternateBounds" />
          </mxGeometry>
        </mxCell>
        <mxCell id="HLHCXN7Uvu8sfQoYptTu-56" value="" style="shape=tableRow;horizontal=0;startSize=0;swimlaneHead=0;swimlaneBody=0;top=0;left=0;bottom=0;right=0;collapsible=0;dropTarget=0;fillColor=none;points=[[0,0.5],[1,0.5]];portConstraint=eastwest;strokeColor=inherit;fontSize=16;" parent="HLHCXN7Uvu8sfQoYptTu-49" vertex="1">
          <mxGeometry y="90" width="470" height="30" as="geometry" />
        </mxCell>
        <mxCell id="HLHCXN7Uvu8sfQoYptTu-57" value="③" style="shape=partialRectangle;html=1;whiteSpace=wrap;connectable=0;fillColor=none;top=0;left=0;bottom=0;right=0;overflow=hidden;strokeColor=inherit;fontSize=15;" parent="HLHCXN7Uvu8sfQoYptTu-56" vertex="1">
          <mxGeometry width="41" height="30" as="geometry">
            <mxRectangle width="41" height="30" as="alternateBounds" />
          </mxGeometry>
        </mxCell>
        <mxCell id="HLHCXN7Uvu8sfQoYptTu-58" value="&lt;p style=&quot;white-space-collapse: preserve; font-size: 15px; margin: 0px;&quot;&gt;csv の内容をシート「表データ（○月〜○月）」にペースト&lt;/p&gt;" style="shape=partialRectangle;html=1;whiteSpace=wrap;connectable=0;fillColor=none;top=0;left=0;bottom=0;right=0;align=left;spacingLeft=6;overflow=hidden;strokeColor=inherit;fontSize=15;" parent="HLHCXN7Uvu8sfQoYptTu-56" vertex="1">
          <mxGeometry x="41" width="429" height="30" as="geometry">
            <mxRectangle width="429" height="30" as="alternateBounds" />
          </mxGeometry>
        </mxCell>
        <mxCell id="HLHCXN7Uvu8sfQoYptTu-62" style="shape=tableRow;horizontal=0;startSize=0;swimlaneHead=0;swimlaneBody=0;top=0;left=0;bottom=0;right=0;collapsible=0;dropTarget=0;fillColor=none;points=[[0,0.5],[1,0.5]];portConstraint=eastwest;strokeColor=inherit;fontSize=16;" parent="HLHCXN7Uvu8sfQoYptTu-49" vertex="1">
          <mxGeometry y="120" width="470" height="30" as="geometry" />
        </mxCell>
        <mxCell id="HLHCXN7Uvu8sfQoYptTu-63" value="④" style="shape=partialRectangle;html=1;whiteSpace=wrap;connectable=0;fillColor=none;top=0;left=0;bottom=0;right=0;overflow=hidden;strokeColor=inherit;fontSize=15;" parent="HLHCXN7Uvu8sfQoYptTu-62" vertex="1">
          <mxGeometry width="41" height="30" as="geometry">
            <mxRectangle width="41" height="30" as="alternateBounds" />
          </mxGeometry>
        </mxCell>
        <mxCell id="HLHCXN7Uvu8sfQoYptTu-64" value="&lt;span style=&quot;font-size: 15px; white-space-collapse: preserve;&quot;&gt;csv の内容をシート「表データ（○月〜○月）」にペースト&lt;/span&gt;" style="shape=partialRectangle;html=1;whiteSpace=wrap;connectable=0;fillColor=none;top=0;left=0;bottom=0;right=0;align=left;spacingLeft=6;overflow=hidden;strokeColor=inherit;fontSize=16;" parent="HLHCXN7Uvu8sfQoYptTu-62" vertex="1">
          <mxGeometry x="41" width="429" height="30" as="geometry">
            <mxRectangle width="429" height="30" as="alternateBounds" />
          </mxGeometry>
        </mxCell>
        <mxCell id="HLHCXN7Uvu8sfQoYptTu-59" style="shape=tableRow;horizontal=0;startSize=0;swimlaneHead=0;swimlaneBody=0;top=0;left=0;bottom=0;right=0;collapsible=0;dropTarget=0;fillColor=none;points=[[0,0.5],[1,0.5]];portConstraint=eastwest;strokeColor=inherit;fontSize=16;" parent="HLHCXN7Uvu8sfQoYptTu-49" vertex="1">
          <mxGeometry y="150" width="470" height="30" as="geometry" />
        </mxCell>
        <mxCell id="HLHCXN7Uvu8sfQoYptTu-60" value="⑤" style="shape=partialRectangle;html=1;whiteSpace=wrap;connectable=0;fillColor=none;top=0;left=0;bottom=0;right=0;overflow=hidden;strokeColor=inherit;fontSize=15;" parent="HLHCXN7Uvu8sfQoYptTu-59" vertex="1">
          <mxGeometry width="41" height="30" as="geometry">
            <mxRectangle width="41" height="30" as="alternateBounds" />
          </mxGeometry>
        </mxCell>
        <mxCell id="HLHCXN7Uvu8sfQoYptTu-61" value="&lt;p style=&quot;white-space-collapse: preserve; font-size: 15px; margin: 0px;&quot;&gt;RX: (受信量)、TX: (送信量)下にある一列目の数値をペースト&lt;/p&gt;" style="shape=partialRectangle;html=1;whiteSpace=wrap;connectable=0;fillColor=none;top=0;left=0;bottom=0;right=0;align=left;spacingLeft=6;overflow=hidden;strokeColor=inherit;fontSize=15;" parent="HLHCXN7Uvu8sfQoYptTu-59" vertex="1">
          <mxGeometry x="41" width="429" height="30" as="geometry">
            <mxRectangle width="429" height="30" as="alternateBounds" />
          </mxGeometry>
        </mxCell>
      </root>
    </mxGraphModel>
  </diagram>
</mxfile>
